<svg height="512pt" viewBox="0 0 512 512" width="512pt" xmlns="http://www.w3.org/2000/svg"><path d="m256 0c-41.398438 0-75 34.601562-75 76s33.601562 75 75 75 75-33.601562 75-75-33.601562-76-75-76zm0 0" fill="#ffe569"/><path d="m331 76c0 41.398438-33.601562 75-75 75v-151c41.398438 0 75 34.601562 75 76zm0 0" fill="#ffc739"/><path d="m437 331v-30c24.8125 0 45-20.1875 45-45s-20.1875-45-45-45v-30c41.351562 0 75 33.648438 75 75s-33.648438 75-75 75zm0 0" fill="#f03800"/><path d="m310 181h-136.199219c-14.398437-19.800781-32.703125-31.199219-54.300781-34.5-46.800781-6.898438-91.199219 30.300781-93 31.800781l-12.300781 10.5 44.699219 45c-8.699219 11.398438-15.597657 23.699219-20.097657 37.199219h-38.800781v120h53.800781c7.199219 11.101562 16.199219 21 26.699219 29.398438 11.398438 9.601562 30 32.5 25.5 75.101562l-1.800781 16.5h90.601562l3.898438-47.199219c.601562-7.800781 7.199219-13.800781 15-13.800781h54.597656c7.800781 0 14.402344 6 15 13.800781l3.902344 47.199219h90.601562l-1.800781-16.5c-3.601562-32.101562 5.097656-58.601562 24.601562-74.5 33.597657-27 53.5-69 51.097657-112.199219-3.597657-71.699219-66.398438-127.800781-141.699219-127.800781zm0 0" fill="#ff641a"/><path d="m451.699219 308.800781c2.402343 43.199219-17.5 85.199219-51.097657 112.199219-19.503906 15.898438-28.203124 42.398438-24.601562 74.5l1.800781 16.5h-90.601562l-3.898438-47.199219c-.601562-7.800781-7.203125-13.800781-15-13.800781h-12.300781v-270h54c75.300781 0 138.101562 56.101562 141.699219 127.800781zm0 0" fill="#f03800"/><path d="m181 241h150v30h-150zm0 0" fill="#3e5959"/><path d="m106 264.789062 21.210938 21.207032-21.210938 21.210937-21.210938-21.210937zm0 0" fill="#3e5959"/><path d="m301 76c0 24.898438-20.097656 45-45 45s-45-20.101562-45-45c0-24.902344 20.097656-46 45-46s45 21.097656 45 46zm0 0" fill="#ffc739"/><path d="m256 121v-91c24.902344 0 45 21.097656 45 46 0 24.898438-20.097656 45-45 45zm0 0" fill="#ff9400"/><path d="m256 241h75v30h-75zm0 0" fill="#3e5959"/></svg>