<svg xmlns="http://www.w3.org/2000/svg" viewBox="0 0 878.48 322.94"><defs><style>.cls-1{fill:#005aa2;}.cls-2{fill:#fdfdfd;}.cls-3{fill:#fcfdfd;}.cls-4{fill:#fefefe;}.cls-5{fill:#fdfefe;}</style></defs><title>logo</title><g id="Capa_2" data-name="Capa 2"><g id="Capa_1-2" data-name="Capa 1"><path class="cls-1" d="M68,126.12c6.41,10.58,2.64,20-3.3,29.19-.27.42-.49.87-.74,1.3-2.25,4-6.22,8.08-6.28,12.17s6,5.89,9.17,9A21,21,0,0,1,73.11,191q2.25,23,4.25,46.12c.55,6.18,1.35,6.64,7.35,6.11,12.06-1.08,24.15-1.83,36.23-2.65,10.77-.73,21.55-1.45,32.33-2,2.23-.11,3.17-1.26,4.17-2.86,3.19-5.05,6.34-10.13,9.71-15.05,3.12-4.54,7.83-5.73,11.48-3.2,3.87,2.68,4.32,7.06,1.08,11.77-16.36,23.8-28.73,49.62-39,76.55a30.94,30.94,0,0,1-2.14,5,6.83,6.83,0,0,1-7.66,3.41,7.07,7.07,0,0,1-5.85-6.59c-.28-2.76.63-5.27,1.59-7.74A409.76,409.76,0,0,1,145,258.59c1.9-3.63,1.19-4.38-2.77-4.09-19.7,1.45-39.41,2.82-59.13,4-12.65.74-19.31-5-20.57-17.66q-2.28-23-4.19-46.12a10.31,10.31,0,0,0-4.25-8c-2.92-2.19-5.77-4.49-8.59-6.83-5.7-4.74-6.63-9.35-3.07-15.79q5.81-10.44,11.85-20.76c2.13-3.62,1.72-6.67.13-10.68-4.29-10.87-11.59-17.07-23.22-18.45-2.91-.35-5.73-1.64-8.54-2.62-5-1.72-8.36-6.34-8.07-10.81A11,11,0,0,1,24.41,90.5c8.24-.88,16.53-1.47,24.81-1.87,2.74-.13,4.46-.76,6-3.26C74.57,53,103.12,33.38,140.44,29c41.17-4.84,75.79,9.48,102.38,41.57,17.73,21.39,26.24,46.28,25.41,74.11a13.35,13.35,0,0,0,4.71,11.24c5.87,5.42,11.25,11.37,17,16.91,3.61,3.47,4.56,7.34,2.25,11.66-2.5,4.69-6.87,4.77-11.31,3.54-6.24-1.71-12.48-3.45-18.58-5.58-3.47-1.21-4.77-.59-5.71,3.11-7,27.62-14.31,55.19-21.51,82.77-.25,1-.53,1.91-.81,2.87-1.49,5.07-5,7.36-9.7,6.23-4.07-1-6.27-4.85-5.07-9.86,1.93-8.06,4.16-16.05,6.28-24.06,5.46-20.67,10.87-41.35,16.42-62,.92-3.42.5-5.15-3.41-6-6.29-1.42-12.43-3.53-18.62-5.37-1.26-.37-2.56-1.26-2.91,1-1.63,10.74-10.06,16.83-16.67,24.14a50.08,50.08,0,0,1-6,5.28c-3.51,2.83-7.23,2.6-10.23-.47s-3.08-7,.06-10.28c5-5.14,10.31-9.91,14.86-15.48,4.83-5.92,4-9.2-3.06-11.31Q135,144.85,73.73,126.76C72.1,126.28,70.42,125.13,68,126.12Z"/><path class="cls-1" d="M587.34,100.39c.27,32.27-26.39,67.81-63.11,71.44-20.33,2-38.41-1.72-52.91-16.9-12.14-12.71-16.28-28.16-14.17-45.39,3.25-26.6,17-46.52,40.75-58.15,22.43-11,45.5-11.06,67.36,2.82C578.85,62.84,588.16,82.36,587.34,100.39Z"/><path class="cls-1" d="M666.73,104.38Q669,91,671.35,77.64c1.63-9.3,3.31-18.6,4.86-27.92.29-1.79.38-3.07,2.79-3,10.64.12,21.29,0,32.18,0C707,70.59,703,94.07,698.89,117.55c-2.82,16.17-5.84,32.3-8.4,48.51-.52,3.23-1.71,3.64-4.42,3.59-6.82-.14-13.66-.19-20.48,0-2.75.09-4-.84-5.18-3.31-8.18-17.4-16.55-34.71-24.86-52.05-.42-.88-.56-1.94-2.26-2.67-1.33,7-2.68,13.87-3.92,20.74-2,11.42-4.13,22.83-6,34.28-.37,2.34-1.15,3-3.42,3q-14.24-.15-28.48,0c-2.81,0-3.12-.79-2.62-3.54q10.39-57.75,20.43-115.55c.49-2.84,1.36-4,4.37-3.9q10.25.32,20.49,0c2.67-.08,3.94.69,5.12,3.22,7.8,16.66,15.85,33.21,23.82,49.79.78,1.62,1.59,3.22,2.39,4.82Z"/><path class="cls-1" d="M368.88,304.6c-8.83,0-17.67-.16-26.49.08-3.47.09-4.7-.67-4-4.34,3.91-21.53,7.67-43.08,11.47-64.63,2.88-16.32,5.85-32.63,8.53-49,.61-3.73,1.79-5.21,5.86-5.12,13.66.28,27.33-.07,41,.18,7.61.14,15.24.91,22.3,4.2,16.05,7.49,21.53,25.06,13.08,41.84-2.41,4.8-5.46,9.13-10,12.15-2.17,1.44-3.3,2.79-.64,4.9,14.19,11.26,9.81,37.36-4.65,48.74-9.38,7.38-20.09,10.76-31.88,10.95C385.21,304.71,377,304.6,368.88,304.6Z"/><path class="cls-1" d="M819.46,181.72c7.57.54,16.91-.89,26.18.64,25.12,4.16,37.65,23.65,31.14,48.47-3.06,11.65-9.65,20.72-20.17,26.65-2.88,1.63-3.43,3.19-2.3,6.27,4.49,12.3,8.61,24.73,13.15,37,1.19,3.24.72,4-2.67,3.9q-13.49-.27-27,0c-2.79.06-4-.72-4.85-3.52-3.27-10.59-7.2-21-10.29-31.62-1.88-6.45-6.68-3.15-10.22-3.84-3.79-.74-3,2.58-3.4,4.65-1.93,10.42-3.92,20.84-5.64,31.31-.38,2.32-1.12,3-3.4,3q-14.25-.15-28.49,0c-2.79,0-3.15-.75-2.65-3.53q10.41-57.75,20.46-115.56c.49-2.79,1.42-4,4.43-3.89C801.74,181.84,809.74,181.72,819.46,181.72Z"/><path class="cls-1" d="M612.93,227.55c4-1.76,5.38-5,7.33-7.55q12.82-16.56,25.12-33.51c2.43-3.34,4.87-5.07,9.35-4.91,11.14.41,22.32.14,34.43.14-5.29,6.79-10.17,13.12-15.13,19.41q-15.43,19.58-31,39.1c-1.86,2.33-2.14,4.35-.8,7.2,8.82,18.74,17.43,37.57,26.47,57.16-11.87,0-23.09,0-34.31,0-2.53,0-2.78-2.06-3.48-3.62q-9.33-20.87-18.58-41.78c-.86-1.92-1.85-3.79-3.26-6.65-2.47,6.26-2.7,12-3.75,17.47-1.92,10.09-3.58,20.24-5.26,30.38-.5,3.07-1.72,4.38-5.16,4.29-9.81-.28-19.64-.1-30.14-.1,1.66-9.71,3.22-19.1,4.88-28.47,5.19-29.38,10.52-58.74,15.53-88.15.79-4.66,2-6.71,7.3-6.41,9.3.53,18.65.15,28.38.15C618.25,196.94,615.64,212,612.93,227.55Z"/><path class="cls-1" d="M434.8,304.6c5-10.12,9.59-19.62,14.28-29.09,14.75-29.84,29.6-59.63,44.19-89.55,1.66-3.4,3.5-4.42,7.12-4.33,10.32.25,20.65.21,31,0,3.32-.06,4.75.42,5.26,4.3,3.35,25.14,7.08,50.22,10.7,75.32,1.87,13,3.73,25.9,5.73,38.83.5,3.21.16,4.72-3.76,4.6-9.32-.3-18.65-.17-28-.05-2.65,0-4.57-.14-4.24-3.56.11-1.11-.45-2.27-.59-3.42-1-8.89-1-8.9-9.79-8.9-7.66,0-15.32.15-23-.07-2.83-.09-4.62.82-5.15,3.44-2.23,11.06-9.07,14-19.68,12.65C451.24,303.82,443.36,304.6,434.8,304.6Z"/><path class="cls-1" d="M794.91,92.36c-1.64,9.68-3.26,18.93-4.75,28.21-.48,3-2.4,3-4.73,3-10.5-.06-21,.16-31.5-.12-4-.11-5.41,1.16-5.88,5.14-1.06,9-1.29,8.95,7.58,8.95,11,0,22,.05,33,0,2.7,0,3.77.24,3.06,3.58-1.81,8.42-3.11,16.95-4.39,25.47-.35,2.32-1.2,3.06-3.49,3.06q-37.24-.09-74.49,0c-2.45,0-3-.63-2.55-3.22q10.4-58.28,20.46-116.6c.47-2.7,1.5-3.12,3.82-3.12q36.5.09,73,0c2.76,0,3.38.68,2.81,3.44-1.63,8-3.36,15.94-4.23,24-.45,4.2-2.2,4.57-5.63,4.52-11.66-.17-23.33.07-35-.15-3.78-.07-5.58.59-6,4.92-.85,9-1.16,8.95,8.13,9C774.3,92.37,784.44,92.36,794.91,92.36Z"/><path class="cls-1" d="M760.77,273c-1.6,9.52-3.19,18.83-4.69,28.16-.41,2.49-1.41,3.53-4.2,3.51-24.31-.12-48.62-.16-72.93,0-3.85,0-3.91-1.43-3.38-4.41q9.45-53.08,18.7-106.2c2.12-12.33,1.9-12.36,14.51-12.36H776c-1.63,9.68-3.27,19.09-4.76,28.53-.43,2.68-1.74,3.39-4.35,3.37-12.32-.13-24.64,0-37-.13-3.24-.05-4.43.67-5,4.16-1.59,9.92-1.85,9.88,8.1,9.88,9,0,18,.11,27-.07,2.95-.05,3.79.82,3.24,3.68-1.51,7.81-2.94,15.64-4.21,23.49-.51,3.14-1.78,4.17-5.14,4.08-10.48-.29-21,0-31.47-.17-3.3-.06-4.83.45-5.45,4.32-1.6,9.91-1.91,9.85,7.92,9.86l34.47,0A12.32,12.32,0,0,1,760.77,273Z"/><path class="cls-1" d="M361.68,169.6c3.72-21.2,7.37-42,11.05-62.9,3.2-18.11,6.59-36.19,9.55-54.34.73-4.42,2.17-5.84,6.83-5.78,21.5.3,43,.13,64.49.13h5.53c-1.72,10.28-3.36,20.08-5,29.87-.46,2.72-1.54,4.16-4.85,4.08-11-.26-22,0-33-.16-3.17,0-5.07.54-5.12,4.2a20.64,20.64,0,0,1-1.11,6.86c-1.61,4.32-.27,5.36,4.11,5.25,10.49-.28,21,0,31.49-.16,3.34-.06,4,1,3.35,4-1.73,8.78-3.41,17.59-4.71,26.44-.43,2.87-1.48,3.55-4.11,3.52-10.67-.1-21.34.11-32-.12-3.79-.08-5.49.78-6.06,4.93-1.36,10-3.38,19.93-5.09,29.9-.5,2.9-1.53,4.46-5.07,4.36C382,169.4,372,169.6,361.68,169.6Z"/><path class="cls-1" d="M306.27,174.32c-2-5.94-6.27-10.07-10.68-14.07a7.63,7.63,0,0,1-2.55-6.11c-1-67.3-45.84-122.85-111.65-136.09-42.13-8.48-80.7,1.2-114.54,28.25A136.2,136.2,0,0,0,40.9,73.8c-.85,1.2-1.45,2.54-3.3,2.63-5.44.26-10.88.65-16.43,1,29.12-54.07,99.77-93,175.43-71.32C274.84,28.55,316.94,104.76,306.27,174.32Z"/><path class="cls-1" d="M368.49,31.61c-1.65,9.26-3.44,19.72-5.4,30.15-5.53,29.47-11.18,58.92-16.7,88.4q-9.39,50.09-18.66,100.2c-3.87,20.85-7.69,41.71-11.64,62.55-.64,3.34-.67,7.25-4.34,9a8,8,0,0,1-8.55-.56c-2.92-2.13-3.28-5.26-2.66-8.53,2.45-13,5-26,7.46-39.07q7.68-41,15.27-82.1,9.3-49.84,18.64-99.69c3.83-20.52,7.7-41.05,11.42-61.59.61-3.34,1.72-6.16,4.91-7.54C363.65,20.53,368.59,24.22,368.49,31.61Z"/><path class="cls-1" d="M5.32,114.48c3.93,3.78,6.91,7.46,11.54,9,2.45.81,1.32,2.75,1.05,4.19-7.43,40,1.06,76.41,25,109.23,3.79,5.2,7.19,10.33,9.53,16.53C56.6,264.59,65.6,270.5,77.58,271.5A11.23,11.23,0,0,1,82.7,273a121.26,121.26,0,0,0,31.21,13.78c3,.83,3.32,1.91,2.24,4.74C112,302.61,112,302.87,101,298.5c-54.76-21.87-88-61.67-98.77-119.74C-1.72,157.4-.28,136.17,5.32,114.48Z"/><path class="cls-1" d="M246.63,275.29c1.91-7.28,3.77-14.57,5.75-21.82,1.16-4.22,5-6.48,7.61-9.59a145.65,145.65,0,0,0,23.41-39c.61-1.49.76-3,3-3.38,9.39-1.72,10.27-2.31,17.14-9.6-9.69,34.79-27.72,62.79-55.66,84.1Z"/><path class="cls-1" d="M154,308.15a3,3,0,0,1,.14-.74c2.54-4.86,2.14-12.27,7.32-14.4,4.69-1.92,10.7-1.36,16.11-2.2a120.46,120.46,0,0,0,28.12-7.93c2.26-.94,3.88-1.4,5.83,1.18,3,3.93,7.6,5.66,12.89,6.91C202.09,302.58,178.8,307.91,154,308.15Z"/><path class="cls-2" d="M167.33,53.5a125.3,125.3,0,0,0-58.1,16c-.87.48-1.75,1-2.6,1.47-2.69,1.66-5.46,2.35-7.22-1-1.57-3,.14-5,2.81-6.44,4.11-2.15,8.14-4.51,12.36-6.41,18.25-8.18,37.24-13,57.41-12a23.8,23.8,0,0,1,3.95.47c2.39.54,3.83,2.05,3.61,4.6S177.63,54,175.17,54C172.52,54,169.87,53.66,167.33,53.5Z"/><path class="cls-3" d="M81.43,92c-3.55.2-5.79-3-4.17-6.17C79.71,81.06,83.55,77.33,87.7,74a3.84,3.84,0,0,1,5,.35c1.53,1.34,2.35,3.27,1.07,4.85C90.4,83.45,86.67,87.41,83,91.41,82.6,91.84,81.78,91.86,81.43,92Z"/><path class="cls-4" d="M525.09,78.38c19.31-1.87,29.58,13.46,27.46,28-2.58,17.7-17.84,32-35.69,32.07-18.58.07-29.4-15.27-24.15-34C496.83,89.71,511.76,78.18,525.09,78.38Z"/><path class="cls-5" d="M390.85,257.4c1.82,0,3.65,0,5.47,0,7.14.25,10,5.26,6.45,11.51a10.72,10.72,0,0,1-8.35,5.56,19.72,19.72,0,0,1-3,.07c-4.28-.11-10.24,1.41-12.41-.8s1.1-7.93,1.29-12.18c.15-3.45,1.77-4.62,5.06-4.22A45.35,45.35,0,0,0,390.85,257.4Z"/><path class="cls-3" d="M393.52,228.4c-7.38,0-7.38,0-6.08-7.43,1.6-9.18,1.6-9.18,11-8.95,7.19.19,10.08,2.14,10,6.79-.06,5.64-4,9.29-10.46,9.58C396.5,228.45,395,228.4,393.52,228.4Z"/><path class="cls-4" d="M824.92,236.73c-9.7,0-9.7,0-7.92-9.28.07-.33.1-.66.19-1,1-4.08-.33-10.45,3.18-11.83,5-1.94,11.17-1.21,16.72.09,3.41.79,5.31,3.43,5.57,6.9.39,5.26-1,9.83-5.61,13.06C833.16,237.42,828.75,236.52,824.92,236.73Z"/><path class="cls-5" d="M493,260.73c5.47-12.27,10.56-23.71,16-35.84,1.24,3.05,1.18,5.61,1.39,8.11.71,8.09,1.32,16.19,2.23,24.25.28,2.58-.12,3.62-2.93,3.52C504.31,260.6,499,260.73,493,260.73Z"/></g></g></svg>