<svg height="277pt" viewBox="0 -31 277.5 277" width="277pt" xmlns="http://www.w3.org/2000/svg"><path d="m272.5.25h-267.5c-2.761719 0-5 2.238281-5 5v154.757812c0 2.757813 2.238281 5 5 5h267.5c2.761719 0 5-2.242187 5-5v-154.765624c-.003906-2.757813-2.242188-4.992188-5-4.992188zm-5 10v19.503906h-257.5v-19.503906zm-257.5 144.757812v-93.84375h241.421875c2.757813 0 5-2.238281 5-5 0-2.757812-2.242187-5-5-5h-241.421875v-11.417968h257.5v115.261718zm0 0"/><path d="m66.421875 107.074219h-36.601563c-2.761718 0-5 2.238281-5 5v26.320312c0 2.761719 2.238282 5 5 5h36.605469c2.757813 0 5-2.238281 5-5v-26.320312c0-2.761719-2.242187-5.003907-5.003906-5zm-5 26.320312h-26.601563v-16.320312h26.605469zm0 0"/><path d="m242.496094 180.15625h-207.488282c-2.761718 0-5 2.242188-5 5 0 2.761719 2.238282 5 5 5h207.488282c2.761718 0 5-2.238281 5-5 0-2.757812-2.238282-5-5-5zm0 0"/><path d="m219.285156 205.449219h-161.066406c-2.761719 0-5 2.238281-5 5s2.238281 5 5 5h161.066406c2.761719 0 5-2.238281 5-5s-2.238281-5-5-5zm0 0"/></svg>